<?xml version="1.0" standalone="no"?>
<svg xmlns:xlink="http://www.w3.org/1999/xlink" id="wave" style="transform:rotate(0deg); transition: 0.3s" viewBox="0 0 1440 490" version="1.1" xmlns="http://www.w3.org/2000/svg"><defs><linearGradient id="sw-gradient-0" x1="0" x2="0" y1="1" y2="0"><stop stop-color="rgba(243, 106, 62, 1)" offset="0%"/><stop stop-color="rgba(255, 179, 11, 1)" offset="100%"/></linearGradient></defs><path style="transform:translate(0, 0px); opacity:1" fill="url(#sw-gradient-0)" d="M0,98L48,130.7C96,163,192,229,288,220.5C384,212,480,131,576,130.7C672,131,768,212,864,261.3C960,310,1056,327,1152,334.8C1248,343,1344,343,1440,285.8C1536,229,1632,114,1728,98C1824,82,1920,163,2016,171.5C2112,180,2208,114,2304,147C2400,180,2496,310,2592,367.5C2688,425,2784,408,2880,359.3C2976,310,3072,229,3168,187.8C3264,147,3360,147,3456,122.5C3552,98,3648,49,3744,57.2C3840,65,3936,131,4032,138.8C4128,147,4224,98,4320,89.8C4416,82,4512,114,4608,106.2C4704,98,4800,49,4896,40.8C4992,33,5088,65,5184,122.5C5280,180,5376,261,5472,285.8C5568,310,5664,278,5760,253.2C5856,229,5952,212,6048,171.5C6144,131,6240,65,6336,98C6432,131,6528,261,6624,326.7C6720,392,6816,392,6864,392L6912,392L6912,490L6864,490C6816,490,6720,490,6624,490C6528,490,6432,490,6336,490C6240,490,6144,490,6048,490C5952,490,5856,490,5760,490C5664,490,5568,490,5472,490C5376,490,5280,490,5184,490C5088,490,4992,490,4896,490C4800,490,4704,490,4608,490C4512,490,4416,490,4320,490C4224,490,4128,490,4032,490C3936,490,3840,490,3744,490C3648,490,3552,490,3456,490C3360,490,3264,490,3168,490C3072,490,2976,490,2880,490C2784,490,2688,490,2592,490C2496,490,2400,490,2304,490C2208,490,2112,490,2016,490C1920,490,1824,490,1728,490C1632,490,1536,490,1440,490C1344,490,1248,490,1152,490C1056,490,960,490,864,490C768,490,672,490,576,490C480,490,384,490,288,490C192,490,96,490,48,490L0,490Z"/></svg>