<?xml version="1.0" standalone="no"?>
<svg xmlns:xlink="http://www.w3.org/1999/xlink" id="wave" style="transform:rotate(180deg); transition: 0.3s" viewBox="0 0 1440 490" version="1.1" xmlns="http://www.w3.org/2000/svg"><defs><linearGradient id="sw-gradient-0" x1="0" x2="0" y1="1" y2="0"><stop stop-color="rgba(255, 255, 255, 1)" offset="0%"/><stop stop-color="rgba(242.257, 242.351, 255, 1)" offset="100%"/></linearGradient></defs><path style="transform:translate(0, 0px); opacity:1" fill="url(#sw-gradient-0)" d="M0,245L30,236.8C60,229,120,212,180,245C240,278,300,359,360,334.8C420,310,480,180,540,171.5C600,163,660,278,720,343C780,408,840,425,900,383.8C960,343,1020,245,1080,171.5C1140,98,1200,49,1260,49C1320,49,1380,98,1440,98C1500,98,1560,49,1620,40.8C1680,33,1740,65,1800,81.7C1860,98,1920,98,1980,114.3C2040,131,2100,163,2160,220.5C2220,278,2280,359,2340,343C2400,327,2460,212,2520,138.8C2580,65,2640,33,2700,32.7C2760,33,2820,65,2880,81.7C2940,98,3000,98,3060,106.2C3120,114,3180,131,3240,155.2C3300,180,3360,212,3420,236.8C3480,261,3540,278,3600,245C3660,212,3720,131,3780,122.5C3840,114,3900,180,3960,196C4020,212,4080,180,4140,179.7C4200,180,4260,212,4290,228.7L4320,245L4320,490L4290,490C4260,490,4200,490,4140,490C4080,490,4020,490,3960,490C3900,490,3840,490,3780,490C3720,490,3660,490,3600,490C3540,490,3480,490,3420,490C3360,490,3300,490,3240,490C3180,490,3120,490,3060,490C3000,490,2940,490,2880,490C2820,490,2760,490,2700,490C2640,490,2580,490,2520,490C2460,490,2400,490,2340,490C2280,490,2220,490,2160,490C2100,490,2040,490,1980,490C1920,490,1860,490,1800,490C1740,490,1680,490,1620,490C1560,490,1500,490,1440,490C1380,490,1320,490,1260,490C1200,490,1140,490,1080,490C1020,490,960,490,900,490C840,490,780,490,720,490C660,490,600,490,540,490C480,490,420,490,360,490C300,490,240,490,180,490C120,490,60,490,30,490L0,490Z"/></svg>